# xmcd CD database file
#
# Track frame offsets:
#	182
#	8950
#	22575
#	36000
#	47930
#	62132
#	71962
#	84487
#	95192
#	112420
#	125430
#	138565
#	157242
#	171162
#	189385
#	203957
#	220825
#	234535
#	249722
#	266207
#
# Disc length: 3753 seconds
#
# Revision: 0
# Processed by: cddbd v1.4PL0 Copyright (c) Steve Scherf et al.
# Submitted via: CDex 1.40PlusFr
#
DISCID=350ea714
DTITLE=Johnny Cash - Hello I am Johnny Cash
DYEAR=1900
DGENRE=Country
TTITLE0=The Rebel (Johnny Yuma)
TTITLE1=Tennessee Flat-top Box
TTITLE2=Bad News
TTITLE3=Ring Of Fire
TTITLE4=The Long Black Veil
TTITLE5=The Wall
TTITLE6=Jackson (with June Carter)
TTITLE7=I Walk The Line (live)
TTITLE8=A Boy Named Sue (live)
TTITLE9=Wanted Man
TTITLE10=Man In Black
TTITLE11=Sunday Morning Coming down
TTITLE12=Oney
TTITLE13=One Piece At A time
TTITLE14=No Expectations
TTITLE15=(Ghost) Riders In The Sky
TTITLE16=I'm Gonna Sit On The Porch And Pick On My Old Guitar
TTITLE17=Rockabilly Blues (Texas 1955)
TTITLE18=The Baron
TTITLE19=Brand New Dance ( with June Carter)
EXTD=ID3G: 2
EXTT0=
EXTT1=
EXTT2=
EXTT3=
EXTT4=
EXTT5=
EXTT6=
EXTT7=
EXTT8=
EXTT9=
EXTT10=
EXTT11=
EXTT12=
EXTT13=
EXTT14=
EXTT15=
EXTT16=
EXTT17=
EXTT18=
EXTT19=
PLAYORDER=
